<?xml version="1.0" encoding="UTF-8" standalone="no"?>
<svg
   xmlns:dc="http://purl.org/dc/elements/1.1/"
   xmlns:cc="http://creativecommons.org/ns#"
   xmlns:rdf="http://www.w3.org/1999/02/22-rdf-syntax-ns#"
   xmlns:svg="http://www.w3.org/2000/svg"
   xmlns="http://www.w3.org/2000/svg"
   xmlns:sodipodi="http://sodipodi.sourceforge.net/DTD/sodipodi-0.dtd"
   xmlns:inkscape="http://www.inkscape.org/namespaces/inkscape"
   width="673.34833"
   height="353.28491"
   viewBox="0 0 673.34833 353.28491"
   fill="none"
   version="1.1"
   id="svg1116"
   sodipodi:docname="illustration-about me.svg"
   inkscape:version="1.0.2 (e86c8708, 2021-01-15)">
  <metadata
     id="metadata1120">
    <rdf:RDF>
      <cc:Work
         rdf:about="">
        <dc:format>image/svg+xml</dc:format>
        <dc:type
           rdf:resource="http://purl.org/dc/dcmitype/StillImage" />
      </cc:Work>
    </rdf:RDF>
  </metadata>
  <sodipodi:namedview
     pagecolor="#ffffff"
     bordercolor="#666666"
     borderopacity="1"
     objecttolerance="10"
     gridtolerance="10"
     guidetolerance="10"
     inkscape:pageopacity="0"
     inkscape:pageshadow="2"
     inkscape:window-width="3008"
     inkscape:window-height="1639"
     id="namedview1118"
     showgrid="false"
     inkscape:zoom="1.1399317"
     inkscape:cx="293.09038"
     inkscape:cy="177.03717"
     inkscape:window-x="0"
     inkscape:window-y="25"
     inkscape:window-maximized="1"
     inkscape:current-layer="svg1116" />
  <path
     d="m 88.956584,329.34517 h 71.218796 v 5.515 H 88.956584 Z"
     fill="#ffffff"
     stroke="#262626"
     stroke-width="0.787818"
     stroke-miterlimit="10"
     id="path1042"
     style="fill:#008ec0;fill-opacity:1;stroke:#012b4b;stroke-opacity:1" />
  <path
     d="m 132.12838,301.92917 c 0,0 -9.138,8.036 -20.955,4.412 -11.817796,-3.624 -48.372496,-15.442 -48.372496,-15.442 l 11.3446,-10.084 c 0,0 38.602896,0 57.037896,-1.89 l 9.454,8.823 z"
     fill="#ffffff"
     stroke="#262626"
     stroke-width="0.787818"
     stroke-miterlimit="10"
     id="path1044"
     style="fill:#008ec0;fill-opacity:1;stroke:#012b4b;stroke-opacity:1" />
  <path
     d="m 85.174884,194.94317 c 0,0 -9.7689,14.338 5.1996,34.034 14.968896,19.695 37.027896,46.481 37.027896,46.481 0,0 11.029,17.332 4.726,26.313 l 43.646,-41.439 z"
     fill="#ffffff"
     stroke="#262626"
     stroke-width="0.787818"
     stroke-miterlimit="10"
     id="path1046"
     style="fill:#008ec0;fill-opacity:1;stroke:#012b4b;stroke-opacity:1" />
  <path
     d="m 244.94438,184.85917 90.442,102.574 c 0,0 28.361,33.088 17.332,51.996 -11.03,18.908 -35.925,14.496 -52.627,7.248 -16.701,-7.248 -214.916296,-151.576 -214.916296,-151.576 L 248.25338,55.499565 l 77.679,58.455605 z"
     fill="#ffffff"
     stroke="#262626"
     stroke-width="0.787818"
     stroke-miterlimit="10"
     id="path1048"
     style="fill:#008ec0;fill-opacity:1;stroke:#012b4b;stroke-opacity:1" />
  <path
     d="m 198.77838,147.35917 -34.979,-20.798 -51.05,44.905 33.246,25.841 z"
     fill="#ff6b00"
     stroke="#262626"
     stroke-width="0.787818"
     stroke-miterlimit="10"
     id="path1050"
     style="fill:#f70e4d;fill-opacity:1" />
  <path
     d="m 220.20738,147.35917 -86.975,-59.243905 -52.783696,46.480905 86.974696,62.711 z"
     fill="#ffffff"
     stroke="#262626"
     stroke-width="0.787818"
     stroke-miterlimit="10"
     id="path1052"
     style="fill:#f70e4d;fill-opacity:1" />
  <path
     d="m 154.81738,119.78517 -19.222,16.229 51.68,42.227 33.877,-31.985 z"
     fill="#262626"
     id="path1054"
     style="fill:#012b4b;fill-opacity:1" />
  <path
     d="m 318.52738,328.40017 -147.007,-118.331 33.088,-32.93 z"
     fill="#262626"
     id="path1056"
     style="fill:#012b4b;fill-opacity:1" />
  <path
     d="m 371.15238,278.29417 -181.828,-211.922605 -52.941,46.481605 182.143,215.547 z"
     fill="#ffffff"
     stroke="#262626"
     stroke-width="0.787818"
     stroke-miterlimit="10"
     id="path1058"
     style="fill:#008ec0;fill-opacity:1;stroke:#012b4b;stroke-opacity:1" />
  <path
     d="m 248.25338,117.73717 114.234,-92.804905 c 2.363,24.4223 12.763,49.1598 12.763,49.1598 l 111.239,104.937105 -38.288,33.246 2.521,2.049 c 18.278,18.277 0,40.336 0,40.336 l -102.573,90.126 c 12.92,-17.805 -2.679,-43.015 -2.679,-43.015 l -100.841,-117.069 c -29.622,-35.767 3.624,-66.965 3.624,-66.965 z"
     fill="#ffffff"
     stroke="#262626"
     stroke-width="0.787818"
     stroke-miterlimit="10"
     id="path1060"
     style="fill:#008ec0;fill-opacity:1;stroke:#012b4b;stroke-opacity:1" />
  <path
     d="m 435.12438,268.52517 c 0,0 9.453,-19.065 -5.83,-37.185 -15.126,-18.12 -152.994,-127.311 -152.994,-127.311 l 18.592,-18.435005 156.146,128.887005 c 0,0 15.283,15.126 3.939,34.034 l -3.939,6.302 z"
     fill="#ff6b00"
     stroke="#262626"
     stroke-width="0.787818"
     stroke-miterlimit="10"
     id="path1062"
     style="fill:#f70e4d;fill-opacity:1" />
  <path
     d="m 595.68038,227.24417 c 0,0 24.738,30.725 10.085,57.826 -14.654,27.101 -51.524,14.023 -55.62,10.556 -4.255,-3.308 -210.505,-172.532 -210.505,-172.532 0,0 -14.496,-14.338 -41.282,-17.332 -30.883,-3.466 -50.105,12.133 -50.105,12.133 l 114.233,-92.805305 c 0,0 35.137,-19.3803596 78.309,7.8781 43.173,27.2585 169.539,128.257205 169.539,128.257205 l -29.149,41.596 c 0,0 6.46,11.187 14.495,24.423 z"
     fill="#ffffff"
     stroke="#262626"
     stroke-width="0.787818"
     stroke-miterlimit="10"
     id="path1064"
     style="fill:#008ec0;fill-opacity:1;stroke:#012b4b;stroke-opacity:1" />
  <mask
     id="mask0"
     mask-type="alpha"
     maskUnits="userSpaceOnUse"
     x="247"
     y="17"
     width="364"
     height="285">
    <path
       d="m 595.546,226.834 c 0,0 24.737,30.725 10.084,57.826 -14.654,27.101 -51.524,14.024 -55.62,10.557 -4.255,-3.309 -210.505,-172.532 -210.505,-172.532 0,0 -14.496,-14.338 -41.282,-17.332 -30.882,-3.466 -50.105,12.132 -50.105,12.132 L 362.351,24.6804 c 0,0 35.137,-19.38031 78.31,7.8782 43.172,27.2585 169.538,128.2564 169.538,128.2564 l -29.149,41.597 c 0,0 6.46,11.187 14.496,24.422 z"
       fill="#ffffff"
       stroke="#262626"
       stroke-width="0.787818"
       stroke-miterlimit="10"
       id="path1066" />
  </mask>
  <g
     mask="url(#mask0)"
     id="g1095"
     transform="translate(0.09038405,0.03716545)">
    <g
       clip-path="url(#clip0)"
       id="g1093">
      <path
         d="m 453.707,96.0537 -40.775,3.579 -7.143,42.0533 -42.263,4.473 7.143,-42.649 -43.751,3.877 7.143,-44.1406 43.751,-2.9825 42.56,-2.9824 7.143,-42.6495 40.775,-2.0878 7.441,-42.3512 39.286,-1.193 -7.44,41.4565 -7.143,41.1582 -39.287,2.6843 z"
         fill="#666666"
         id="path1069"
         style="fill:#006696;fill-opacity:1" />
      <path
         d="m 446.564,137.212 -6.845,41.158 -40.775,5.07 6.846,-41.754 z"
         fill="#262626"
         id="path1071"
         style="fill:#012b4b;fill-opacity:1" />
      <path
         d="m 493.292,92.4748 -7.143,40.5622 -39.585,4.175 7.143,-41.1582 z"
         fill="#262626"
         id="path1073"
         style="fill:#012b4b;fill-opacity:1" />
      <path
         d="m 523.946,129.159 -7.143,39.667 -37.798,4.772 7.143,-40.562 z"
         fill="#262626"
         id="path1075"
         style="fill:#012b4b;fill-opacity:1" />
      <path
         d="m 531.09,89.194 -37.799,3.2808 7.143,-40.86 38.096,-2.6843 36.608,-2.6842 -7.143,39.667 -7.441,39.3687 -36.608,3.877 z"
         fill="#ff6b00"
         id="path1077"
         style="fill:#f70e4d;fill-opacity:1" />
      <path
         d="m 319.775,150.931 43.751,-4.772 -6.845,42.65 42.262,-5.369 -7.143,41.457 -42.262,5.965 -43.751,6.263 7.143,-42.948 -45.537,5.667 -47.323,5.965 6.846,-45.035 47.322,-5.071 7.143,-44.439 45.537,-3.877 z"
         fill="#ff6b00"
         id="path1079"
         style="fill:#f70e4d;fill-opacity:1" />
      <path
         d="m 233.761,115.44 7.143,-45.6321 47.322,-3.2807 -6.845,44.7368 z"
         fill="#262626"
         id="path1081"
         style="fill:#012b4b;fill-opacity:1" />
      <path
         d="m 253.702,286.933 6.846,-43.246 45.239,-6.562 -6.846,42.65 z"
         fill="#262626"
         id="path1083" />
      <path
         d="m 439.718,178.37 39.287,-4.772 -7.143,39.966 -7.143,39.667 -39.287,6.263 -40.477,6.561 6.845,-41.158 40.775,-5.667 z"
         fill="#262626"
         id="path1085"
         style="fill:#012b4b;fill-opacity:1" />
      <path
         d="m 546.566,202.827 -36.906,5.368 7.143,-39.369 36.608,-4.772 z"
         fill="#262626"
         id="path1087"
         style="fill:#012b4b;fill-opacity:1" />
      <path
         d="m 596.269,121.405 -7.143,38.474 -35.715,4.175 7.143,-38.772 z"
         fill="#262626"
         id="path1089"
         style="fill:#012b4b;fill-opacity:1" />
      <path
         d="m 288.227,66.5272 7.143,-45.0355 45.834,-2.386 -7.143,44.1408 z"
         fill="#262626"
         id="path1091" />
    </g>
  </g>
  <path
     d="m 581.97338,221.25617 -26.786,27.259 44.906,43.645 c 0,-0.158 24.422,-29.937 -18.12,-70.904 z"
     fill="#262626"
     id="path1097"
     style="fill:#012b4b;fill-opacity:1" />
  <path
     d="m 568.10738,210.38417 69.328,-82.248 c 0,0 26.628,28.519 32.616,45.851 8.035,23.32 -3.152,37.343 -3.152,37.343 l -66.807,80.672 c 0,0 11.503,-8.666 -1.26,-42.227 -12.132,-31.985 -30.725,-39.391 -30.725,-39.391 z"
     fill="#ffffff"
     stroke="#262626"
     stroke-width="0.787818"
     stroke-miterlimit="10"
     id="path1099"
     style="fill:#008ec0;fill-opacity:1;stroke:#012b4b;stroke-opacity:1" />
  <path
     d="m 347.83338,100.09017 c 0,0 -38.603,-21.586305 -67.752,-7.878305 l 61.292,-50.1052 47.112,9.6114 z"
     fill="#262626"
     id="path1101"
     style="fill:#012b4b;fill-opacity:1" />
  <path
     d="m 449.61838,72.989165 -94.38,-72.47928255 -62.395,54.98968255 94.538,76.575605 z"
     fill="#ffffff"
     stroke="#262626"
     stroke-width="0.787818"
     stroke-miterlimit="10"
     id="path1103"
     style="fill:#008ec0;fill-opacity:1;stroke:#012b4b;stroke-opacity:1" />
  <path
     id="path1105"
     style="fill:#008ec0;fill-opacity:1;stroke:#012b4b;stroke-opacity:1"
     d="M 0.56445312 280.81445 L 20.417969 334.85938 L 107.23633 334.85938 L 88.957031 280.81445 L 0.56445312 280.81445 z M 53.359375 297.41211 A -11.625 11.625 0 0 1 64.984375 309.03711 A -11.625 11.625 0 0 1 53.359375 320.66211 A -11.625 11.625 0 0 1 41.734375 309.03711 A -11.625 11.625 0 0 1 53.359375 297.41211 z " />
  <path
     d="m 154.34538,280.81517 c 0,0 3.309,-3.781 -5.515,-20.64 -8.823,-17.017 -33.246,-39.707 -33.246,-39.707 0,0 -9.926,-9.926 -11.659,-11.659 l 71.849,51.838 z"
     fill="#262626"
     id="path1107"
     style="fill:#012b4b;fill-opacity:1" />
  <defs
     id="defs1114">
    <clipPath
       id="clip0">
      <rect
         width="376.19901"
         height="317.93301"
         fill="#ffffff"
         transform="matrix(1,0,0,-1,220.07,286.933)"
         id="rect1111"
         x="0"
         y="0" />
    </clipPath>
  </defs>
</svg>
