<?xml version="1.0" encoding="UTF-8" standalone="no"?>
<svg
   xmlns:dc="http://purl.org/dc/elements/1.1/"
   xmlns:cc="http://creativecommons.org/ns#"
   xmlns:rdf="http://www.w3.org/1999/02/22-rdf-syntax-ns#"
   xmlns:svg="http://www.w3.org/2000/svg"
   xmlns="http://www.w3.org/2000/svg"
   xmlns:sodipodi="http://sodipodi.sourceforge.net/DTD/sodipodi-0.dtd"
   xmlns:inkscape="http://www.inkscape.org/namespaces/inkscape"
   width="854.11505"
   height="810.38904"
   viewBox="0 0 854.11505 810.38904"
   fill="none"
   version="1.1"
   id="svg920"
   sodipodi:docname="Illustration-header-neon.svg"
   inkscape:version="1.0.2 (e86c8708, 2021-01-15)">
  <metadata
     id="metadata924">
    <rdf:RDF>
      <cc:Work
         rdf:about="">
        <dc:format>image/svg+xml</dc:format>
        <dc:type
           rdf:resource="http://purl.org/dc/dcmitype/StillImage" />
        <dc:title></dc:title>
      </cc:Work>
    </rdf:RDF>
  </metadata>
  <sodipodi:namedview
     pagecolor="#ffffff"
     bordercolor="#666666"
     borderopacity="1"
     objecttolerance="10"
     gridtolerance="10"
     guidetolerance="10"
     inkscape:pageopacity="0"
     inkscape:pageshadow="2"
     inkscape:window-width="3008"
     inkscape:window-height="1639"
     id="namedview922"
     showgrid="false"
     inkscape:zoom="1.4182101"
     inkscape:cx="226.6071"
     inkscape:cy="365.08706"
     inkscape:window-x="0"
     inkscape:window-y="25"
     inkscape:window-maximized="1"
     inkscape:current-layer="svg920" />
  <path
     d="m 628.36056,138.06408 54.935,89.4201 c 0,0 -33.107,16.025 -79.941,51.744 -39.789,30.479 -90.172,88.002 -90.172,88.002 l -93.326,-160.688 c 0,0 41.683,-49.3584 103.619,-90.9073 57.269,-38.611499 69.185,-36.161599 69.185,-36.161599 z"
     fill="#ffffff"
     stroke="#262626"
     stroke-width="1.22338"
     stroke-miterlimit="10"
     id="path833"
     style="fill:#008ec0;fill-opacity:1;stroke:#012b4b;stroke-opacity:1" />
  <path
     d="m 439.69156,185.15518 82.282,144.573 c 0,0 27.489,-30.357 57.846,-56.304 52.382,-44.379 92.658,-63.213 92.658,-63.213 l -80.142,-130.921699 c 0.325,0.1838 -72.892,18.8347 -152.644,105.865699 z"
     fill="#262626"
     id="path835"
     style="fill:#012b4b;fill-opacity:1" />
  <path
     d="m 851.46256,162.79018 c 0,0 -43.846,-33.5956 -134.702,-0.467 -90.857,33.128 -189.526,122.115 -189.526,122.115 l -91.278,-158.2423 c 0,0 124.552,-104.379699 208.271,-120.736699 67.841,-13.3255 103.356,5.0466 103.356,5.0466 z"
     fill="#ffffff"
     stroke="#262626"
     stroke-width="1.22338"
     stroke-miterlimit="10"
     id="path837"
     style="fill:#008ec0;fill-opacity:1" />
  <path
     d="m 830.91256,92.603981 -109.469,231.966199 -306.109,-38.427"
     stroke="#ff6b00"
     stroke-width="1.22338"
     stroke-miterlimit="10"
     id="path839"
     style="stroke:#f70e4d;stroke-opacity:1" />
  <path
     d="m 414.31556,412.98818 167.477,-46.421 23.058,83.188 -167.477,46.422 z"
     fill="#ffffff"
     stroke="#ff6b00"
     stroke-width="1.22338"
     stroke-miterlimit="10"
     id="path841"
     style="fill:#008ec0;fill-opacity:1;stroke:#f70e4d;stroke-opacity:1" />
  <path
     d="m 329.50056,755.64418 -19.09,5.291 c -4.989,-2.178 -10.162,-4.031 -15.222,-6.464 -0.65,-0.368 -1.229,-0.481 -1.879,-0.849 l -6.065,-21.878 33.089,-9.172 z"
     fill="#ffffff"
     stroke="#ff6b00"
     stroke-width="1.22338"
     stroke-miterlimit="10"
     id="path843"
     style="fill:#008ec0;fill-opacity:1;stroke:#f70e4d;stroke-opacity:1" />
  <path
     d="m 371.75456,779.54518 33.088,-9.172 -9.167,-33.072 -33.088,9.172 -9.167,-33.072 33.088,-9.171 -9.167,-33.072 -33.088,9.171 -33.088,9.172 -9.167,-33.072 33.088,-9.172 -9.167,-33.072 -33.088,9.172 9.167,33.072 -33.088,9.171 -33.088,9.172 -9.167,-33.072 -33.088,9.171 -33.088,9.172 9.167,33.072 9.167,33.071 -33.088,9.172 -9.167,-33.072 -14.763,4.092 -15.442,-222.82 c 0,0 21.921,-32.649 80.819,-34.73 88.221,-3.085 131.52,44.359 204.529,60.557 45.884,10.293 56.063,-10.335 56.063,-10.335 l 29.771,191.454 c 0,0 76.792,-16.628 120.64,34.773 26.021,30.592 -13.091,62.527 -53.56,73.744 -42.251,11.711 -92.223,4.469 -172.226,-17.187 z"
     fill="#ffffff"
     stroke="#ff6b00"
     stroke-width="1.22338"
     stroke-miterlimit="10"
     id="path845"
     style="fill:#008ec0;fill-opacity:1;stroke:#f70e4d;stroke-opacity:1" />
  <path
     d="m 371.75556,779.54518 -4.072,1.128 c -11.294,-3.17 -22.729,-6.849 -34.304,-11.037 l -3.879,-13.992 33.088,-9.171 z"
     fill="#ffffff"
     stroke="#ff6b00"
     stroke-width="1.22338"
     stroke-miterlimit="10"
     id="path847"
     style="fill:#008ec0;fill-opacity:1;stroke:#f70e4d;stroke-opacity:1" />
  <path
     d="m 287.24556,731.74418 -32.325,8.959 c -0.254,0.071 -0.579,-0.113 -0.834,-0.042 l -9.096,-32.818 33.088,-9.171 z"
     fill="#ffffff"
     stroke="#ff6b00"
     stroke-width="1.22338"
     stroke-miterlimit="10"
     id="path849"
     style="fill:#008ec0;fill-opacity:1;stroke:#f70e4d;stroke-opacity:1" />
  <path
     d="m 217.26156,736.34918 c -12.879,0.009 -24.176,1.77 -34.428,4.338 l -4.019,-14.501 33.088,-9.171 z"
     fill="#ffffff"
     stroke="#ff6b00"
     stroke-width="1.22338"
     stroke-miterlimit="10"
     id="path851"
     style="fill:#008ec0;fill-opacity:1;stroke:#f70e4d;stroke-opacity:1" />
  <path
     d="m 129.44156,775.48418 -2.546,0.706 -2.549,-34.906 21.38,-5.926 5.359,19.334 c -10.905,7.132 -18.262,15.198 -21.644,20.792 z"
     fill="#ffffff"
     stroke="#ff6b00"
     stroke-width="1.22338"
     stroke-miterlimit="10"
     id="path853"
     style="fill:#008ec0;fill-opacity:1;stroke:#f70e4d;stroke-opacity:1" />
  <path
     d="m 202.73556,683.94318 33.088,-9.172 9.167,33.072 -33.088,9.172 z"
     fill="#ffffff"
     stroke="#ff6b00"
     stroke-width="1.22338"
     stroke-miterlimit="10"
     id="path855"
     style="fill:#008ec0;fill-opacity:1;stroke:#f70e4d;stroke-opacity:1" />
  <path
     d="m 419.06956,512.20818 30.465,231.532 c 0,0 55.46,-39.206 129.632,-27.714 l -41.315,-222.223 c 0,0 -35.226,-27.218 -89.763,5.431 0,0 -11.248,13.802 -29.019,12.974 z"
     fill="#262626"
     id="path857"
     style="fill:#012b4b;fill-opacity:1" />
  <path
     d="m 448.08956,499.23318 -7.032,-55.031 c 0,0 82.15,-15.1 122.45,35.367 l 42.012,257.369 c 0,0 -4.329,-16.607 -53.984,-31.607 -29.895,-8.972 -70.916,3.22 -70.916,3.22 z"
     fill="#ffffff"
     stroke="#ff6b00"
     stroke-width="1.22338"
     stroke-miterlimit="10"
     id="path859"
     style="fill:#008ec0;fill-opacity:1;stroke:#f70e4d;stroke-opacity:1" />
  <path
     d="m 245.79656,453.67218 c 0,0 -32.01,-16.604 -72.538,-2.631 -40.528,13.973 -138.336,104.091 -138.336,104.091 l -3.073,174.807 c 0,0 119.375,-101.301 158.698,-109.735 37.47,-8.195 69.41,8.155 69.41,8.155 z"
     fill="#262626"
     id="path861"
     style="fill:#012b4b;fill-opacity:1" />
  <path
     d="m 214.58156,410.27518 c 0,0 -30.22,-9.156 -72.538,-2.631 -38.105,5.905 -138.336,104.091 -138.336,104.091 l -3.073,174.807 c 0,0 120.574,-96.977 158.698,-109.735 38.123,-12.759 68.708,0.679 68.708,0.679 z"
     fill="#ffffff"
     stroke="#ff6b00"
     stroke-width="1.22338"
     stroke-miterlimit="10"
     id="path863"
     style="fill:#008ec0;fill-opacity:1;stroke:#f70e4d;stroke-opacity:1" />
  <path
     d="m 114.11456,420.59018 0.569,78.191 -76.172,61.383 0.437,-81.482 55.619,-45.551 z"
     fill="#262626"
     id="path865"
     style="fill:#012b4b;fill-opacity:1" />
  <path
     d="m 201.72356,755.44918 85.52,-23.705 15.019,54.187 -85.52,23.705 z"
     fill="#ffffff"
     stroke="#ff6b00"
     stroke-width="1.22338"
     stroke-miterlimit="10"
     id="path867"
     style="fill:#008ec0;fill-opacity:1;stroke:#f70e4d;stroke-opacity:1" />
  <path
     d="m 280.35656,763.53918 -0.377,-1.357 -12.466,-2.536 0.602,2.171 9.499,1.715 -0.106,-0.117 0.094,0.339 0.03,-0.155 -7.26,6.361 0.601,2.171 z m -24.656,-6.172 11.362,19.246 1.832,-0.508 -11.362,-19.246 z m -8.342,21.894 0.949,-1.651 -6.868,-3.887 13.927,-3.86 -0.517,-1.866 -13.927,3.86 3.891,-6.851 -1.668,-0.944 -5.493,9.706 z m -24.973,0.346 12.467,2.536 -0.602,-2.171 -9.499,-1.715 0.105,0.117 -0.094,-0.339 -0.03,0.154 7.261,-6.36 -0.602,-2.171 -9.382,8.592 z"
     fill="#000000"
     id="path869"
     style="fill:#012b4b;fill-opacity:1" />
  <path
     d="m 94.45156,415.90418 0.314,78.261 -76.172,61.384 0.461,-75.463 z"
     fill="#ffffff"
     stroke="#262626"
     stroke-width="1.22338"
     stroke-miterlimit="10"
     id="path871"
     style="fill:#008ec0;fill-opacity:1;stroke:#012b4b;stroke-opacity:1" />
  <path
     id="path873"
     style="fill:#008ec0;fill-opacity:1;stroke:#012b4b;stroke-opacity:1"
     d="M 273.12891 217.07812 L 196.88672 278.20703 L 203.80664 351.625 L 279.20312 287.44141 L 273.12891 217.07812 z M 235.94336 279.58008 C 239.76944 279.69875 243.2387 282.27298 244.31445 286.1543 C 245.63845 290.9313 242.83564 295.87912 238.05664 297.20312 C 233.27664 298.52812 228.33086 295.73012 227.00586 290.95312 C 225.68186 286.17613 228.48172 281.2293 233.26172 279.9043 C 234.15778 279.65586 235.06042 279.55269 235.94336 279.58008 z " />
  <path
     d="m 58.40856,508.35218 -0.005,27.67 -26.876,21.695 0.287,-26.652 z"
     fill="#ffffff"
     stroke="#262626"
     stroke-width="1.22338"
     stroke-miterlimit="10"
     id="path877"
     style="fill:#008ec0;fill-opacity:1;stroke:#012b4b;stroke-opacity:1" />
  <path
     d="m 155.88656,549.54518 0.225,44.317 -41.682,26.62 0.199,-42.79 z"
     fill="#ffffff"
     stroke="#262626"
     stroke-width="1.22338"
     stroke-miterlimit="10"
     id="path879"
     style="fill:#008ec0;fill-opacity:1;stroke:#012b4b;stroke-opacity:1" />
  <path
     d="m 295.82856,579.79018 c -18.414,5.104 -37.478,-5.679 -42.58,-24.084 -5.102,-18.406 5.691,-37.464 24.105,-42.569 18.415,-5.104 37.479,5.679 42.58,24.085 5.102,18.405 -5.69,37.464 -24.105,42.568 z"
     fill="#262626"
     id="path881"
     style="fill:#012b4b;fill-opacity:1" />
  <path
     id="path883"
     style="fill:#008ec0;fill-opacity:1;stroke:#012b4b;stroke-opacity:1"
     d="M 277.20898 497.04883 C 274.3558 497.10212 271.46312 497.51109 268.58594 498.30859 C 250.17094 503.41259 239.37847 522.47291 244.48047 540.87891 C 249.58147 559.28391 268.64555 570.06689 287.06055 564.96289 C 305.47455 559.85889 316.26802 540.79953 311.16602 522.39453 C 306.8612 506.86447 292.61619 496.76105 277.20898 497.04883 z M 278.75781 524.00195 C 281.45844 524.0854 283.90633 525.90283 284.66602 528.64258 C 285.60002 532.01458 283.624 535.50641 280.25 536.44141 C 276.877 537.37641 273.38422 535.4013 272.44922 532.0293 C 271.51522 528.6573 273.49123 525.16547 276.86523 524.23047 C 277.49767 524.05497 278.13459 523.9827 278.75781 524.00195 z " />
  <path
     d="m 277.82056,531.63618 132.854,-234.613"
     stroke="#ff6b00"
     stroke-width="1.22338"
     stroke-miterlimit="10"
     id="path885"
     style="stroke:#f70e4d;stroke-opacity:1" />
  <path
     d="m 424.57256,319.46918 c -18.414,5.104 -37.478,-5.679 -42.58,-24.084 -5.101,-18.406 5.691,-37.464 24.105,-42.569 18.415,-5.104 37.479,5.679 42.58,24.085 5.102,18.405 -5.69,37.464 -24.105,42.568 z"
     fill="#ffffff"
     stroke="#ff6b00"
     stroke-width="1.22338"
     stroke-miterlimit="10"
     id="path887"
     style="fill:#008ec0;fill-opacity:1;stroke:#f70e4d;stroke-opacity:1" />
  <path
     d="m 402.60456,254.05918 5.621,-13.338 32.433,40.869 -24.575,46.807 -6.031,-7.916"
     stroke="#ff6b00"
     stroke-width="1.22338"
     stroke-miterlimit="10"
     id="path889"
     style="stroke:#f70e4d;stroke-opacity:1" />
  <path
     d="m 573.49156,401.67718 -0.481,-1.735 -15.937,-3.241 0.769,2.775 12.144,2.192 -0.135,-0.149 0.12,0.433 0.039,-0.197 -9.282,8.13 0.769,2.776 z m -28.719,16.367 0.661,2.386 13.879,-3.847 -0.661,-2.386 z m -13.806,3.827 0.662,2.385 13.878,-3.847 -0.661,-2.385 z m -13.805,3.827 0.661,2.385 13.879,-3.847 -0.661,-2.385 z m -16.606,-20.43 14.525,24.602 2.343,-0.649 -14.526,-24.603 z m -8.083,27.273 0.661,2.385 13.879,-3.847 -0.661,-2.385 z m -19.179,-3.091 15.937,3.242 -0.769,-2.775 -12.143,-2.192 0.134,0.149 -0.12,-0.433 -0.038,0.197 9.282,-8.13 -0.77,-2.776 -11.994,10.984 z"
     fill="#000000"
     id="path891"
     style="fill:#012b4b;fill-opacity:1" />
  <path
     d="m 523.69756,182.68918 34.024,-12.718 -4.089,-37.4927 35.085,-13.8341 4.23,38.0018 36.498,-13.678 4.328,39.344 -36.71,12.915 -35.692,12.633 3.975,38.072 -34.376,11.446 3.65,37.889 -33.315,10.33 -3.439,-37.126 -3.622,-36.8 32.962,-11.602 z"
     fill="#666666"
     id="path895"
     style="fill:#af0733;fill-opacity:1" />
  <path
     d="m 520.07556,145.88928 -3.877,-36.7297 33.671,-13.990099 3.763,37.309099 z"
     fill="#262626"
     id="path897"
     style="fill:#012b4b;fill-opacity:1" />
  <path
     d="m 490.69256,195.12518 -3.482,-36.291 32.865,-12.9448 3.622,36.8008 z"
     fill="#262626"
     id="path899"
     style="fill:#012b4b;fill-opacity:1" />
  <path
     d="m 455.80356,171.10118 -3.27,-35.528 31.196,-13.0302 3.482,36.2912 z"
     fill="#262626"
     id="path901"
     style="fill:#012b4b;fill-opacity:1" />
  <path
     d="m 459.14456,206.88418 31.548,-11.759 3.553,36.546 -31.945,11.32 -30.672,10.967 -3.27,-35.528 -3.199,-35.274 30.644,-12.055 z"
     fill="#ff6b00"
     id="path903"
     style="fill:#f70e4d;fill-opacity:1" />
  <path
     d="m 516.19856,109.15958 -32.468,13.383 -3.341,-35.782699 -3.27,-35.52834 31.862,-14.58436 33.318,-15.2622 3.877,36.729808 -33.53,14.498892 z"
     fill="#262626"
     id="path905"
     style="fill:#012b4b;fill-opacity:1" />
  <path
     d="m 419.04256,113.62648 30.292,-13.3274 3.199,35.2739 -30.433,12.8186 z"
     fill="#262626"
     id="path907"
     style="fill:#012b4b;fill-opacity:1" />
  <path
     d="m 395.78656,194.85918 -2.988,-34.511 29.301,-11.9568 3.059,34.7648 z"
     fill="#262626"
     id="path909"
     style="fill:#012b4b;fill-opacity:1" />
  <path
     d="m 235.65756,288.55418 562.958,166.117"
     stroke="#ff6b00"
     stroke-width="1.22338"
     stroke-miterlimit="10"
     id="path911"
     style="stroke:#f70e4d;stroke-opacity:1" />
  <defs
     id="defs918">
    <clipPath
       id="clip0">
      <rect
         width="1003.13"
         height="769.271"
         fill="#ffffff"
         transform="matrix(-0.963665,0.267112,0.267112,0.963665,966.682,-135)"
         id="rect915"
         x="0"
         y="0" />
    </clipPath>
  </defs>
</svg>
